<?xml version="1.0" encoding="UTF-8"?>
<!DOCTYPE svg
PUBLIC "-//W3C//DTD SVG 1.1//EN"
       "http://www.w3.org/Graphics/SVG/1.1/DTD/svg11.dtd">
<svg viewBox="29 -13 1255 598" width="1226px" height="611px" xmlns="http://www.w3.org/2000/svg" version="1.1">
   <line x1="988" y1="236" x2="998" y2="236" style="stroke:#b0b;stroke-width:1;"/>
   <line x1="1115" y1="40" x2="1125" y2="40" style="stroke:#b0b;stroke-width:1;"/>
   <line x1="998" y1="236" x2="1115" y2="40" style="stroke:#b0b;stroke-width:1;"/>
   <line x1="995.5" y1="236" x2="991.96446609407" y2="239.53553390593" style="stroke:#b0b;stroke-width:2;"/>
   <line x1="995.5" y1="236" x2="991.96446609407" y2="232.46446609407" style="stroke:#b0b;stroke-width:2;"/>
   <line x1="1120" y1="40" x2="1116.4644660941" y2="43.535533905933" style="stroke:#b0b;stroke-width:2;"/>
   <line x1="1120" y1="40" x2="1116.4644660941" y2="36.464466094067" style="stroke:#b0b;stroke-width:2;"/>
   <line x1="1035" y1="542" x2="1025" y2="542" style="stroke:#cb0;stroke-width:1;"/>
   <line x1="755" y1="463" x2="745" y2="463" style="stroke:#cb0;stroke-width:1;"/>
   <line x1="1025" y1="542" x2="755" y2="463" style="stroke:#cb0;stroke-width:1;"/>
   <line x1="1027.5" y1="542" x2="1031.0355339059" y2="545.53553390593" style="stroke:#cb0;stroke-width:2;"/>
   <line x1="1027.5" y1="542" x2="1031.0355339059" y2="538.46446609407" style="stroke:#cb0;stroke-width:2;"/>
   <line x1="750" y1="463" x2="753.53553390593" y2="466.53553390593" style="stroke:#cb0;stroke-width:2;"/>
   <line x1="750" y1="463" x2="753.53553390593" y2="459.46446609407" style="stroke:#cb0;stroke-width:2;"/>
   <line x1="704" y1="405" x2="714" y2="405" style="stroke:#c00;stroke-width:1;"/>
   <line x1="708" y1="46" x2="698" y2="46" style="stroke:#c00;stroke-width:1;"/>
   <line x1="714" y1="405" x2="708" y2="46" style="stroke:#c00;stroke-width:1;"/>
   <line x1="711.5" y1="405" x2="707.96446609407" y2="408.53553390593" style="stroke:#c00;stroke-width:2;"/>
   <line x1="711.5" y1="405" x2="707.96446609407" y2="401.46446609407" style="stroke:#c00;stroke-width:2;"/>
   <line x1="703" y1="46" x2="706.53553390593" y2="49.535533905933" style="stroke:#c00;stroke-width:2;"/>
   <line x1="703" y1="46" x2="706.53553390593" y2="42.464466094067" style="stroke:#c00;stroke-width:2;"/>
   <line x1="197" y1="258" x2="207" y2="258" style="stroke:#bbb;stroke-width:1;"/>
   <line x1="328" y1="237" x2="338" y2="237" style="stroke:#bbb;stroke-width:1;"/>
   <line x1="207" y1="258" x2="328" y2="237" style="stroke:#bbb;stroke-width:1;"/>
   <line x1="204.5" y1="258" x2="200.96446609407" y2="261.53553390593" style="stroke:#bbb;stroke-width:2;"/>
   <line x1="204.5" y1="258" x2="200.96446609407" y2="254.46446609407" style="stroke:#bbb;stroke-width:2;"/>
   <line x1="333" y1="237" x2="329.46446609407" y2="240.53553390593" style="stroke:#bbb;stroke-width:2;"/>
   <line x1="333" y1="237" x2="329.46446609407" y2="233.46446609407" style="stroke:#bbb;stroke-width:2;"/>
   <line x1="197" y1="238" x2="207" y2="238" style="stroke:#b0b;stroke-width:1;"/>
   <line x1="214" y1="35" x2="204" y2="35" style="stroke:#b0b;stroke-width:1;"/>
   <line x1="207" y1="238" x2="214" y2="35" style="stroke:#b0b;stroke-width:1;"/>
   <line x1="204.5" y1="238" x2="200.96446609407" y2="241.53553390593" style="stroke:#b0b;stroke-width:2;"/>
   <line x1="204.5" y1="238" x2="200.96446609407" y2="234.46446609407" style="stroke:#b0b;stroke-width:2;"/>
   <line x1="209" y1="35" x2="212.53553390593" y2="38.535533905933" style="stroke:#b0b;stroke-width:2;"/>
   <line x1="209" y1="35" x2="212.53553390593" y2="31.464466094067" style="stroke:#b0b;stroke-width:2;"/>
   <line x1="210" y1="375" x2="220" y2="375" style="stroke:#c00;stroke-width:1;"/>
   <line x1="328" y1="237" x2="338" y2="237" style="stroke:#c00;stroke-width:1;"/>
   <line x1="220" y1="375" x2="328" y2="237" style="stroke:#c00;stroke-width:1;"/>
   <line x1="217.5" y1="375" x2="213.96446609407" y2="378.53553390593" style="stroke:#c00;stroke-width:2;"/>
   <line x1="217.5" y1="375" x2="213.96446609407" y2="371.46446609407" style="stroke:#c00;stroke-width:2;"/>
   <line x1="333" y1="237" x2="329.46446609407" y2="240.53553390593" style="stroke:#c00;stroke-width:2;"/>
   <line x1="333" y1="237" x2="329.46446609407" y2="233.46446609407" style="stroke:#c00;stroke-width:2;"/>
   <line x1="44" y1="355" x2="34" y2="355" style="stroke:#c00;stroke-width:1;"/>
   <line x1="34" y1="442" x2="44" y2="442" style="stroke:#c00;stroke-width:1;"/>
   <line x1="34" y1="355" x2="34" y2="442" style="stroke:#c00;stroke-width:1;"/>
   <line x1="36.5" y1="355" x2="40.035533905933" y2="358.53553390593" style="stroke:#c00;stroke-width:2;"/>
   <line x1="36.5" y1="355" x2="40.035533905933" y2="351.46446609407" style="stroke:#c00;stroke-width:2;"/>
   <line x1="39" y1="442" x2="35.464466094067" y2="445.53553390593" style="stroke:#c00;stroke-width:2;"/>
   <line x1="39" y1="442" x2="35.464466094067" y2="438.46446609407" style="stroke:#c00;stroke-width:2;"/>
   <line x1="411" y1="152" x2="421" y2="152" style="stroke:#0b0;stroke-width:1;"/>
   <line x1="591" y1="46" x2="601" y2="46" style="stroke:#0b0;stroke-width:1;"/>
   <line x1="421" y1="152" x2="591" y2="46" style="stroke:#0b0;stroke-width:1;"/>
   <line x1="418.5" y1="152" x2="414.96446609407" y2="155.53553390593" style="stroke:#0b0;stroke-width:2;"/>
   <line x1="418.5" y1="152" x2="414.96446609407" y2="148.46446609407" style="stroke:#0b0;stroke-width:2;"/>
   <line x1="596" y1="46" x2="592.46446609407" y2="49.535533905933" style="stroke:#0b0;stroke-width:2;"/>
   <line x1="596" y1="46" x2="592.46446609407" y2="42.464466094067" style="stroke:#0b0;stroke-width:2;"/>
   <line x1="313" y1="172" x2="303" y2="172" style="stroke:#b0b;stroke-width:1;"/>
   <line x1="328" y1="237" x2="338" y2="237" style="stroke:#b0b;stroke-width:1;"/>
   <line x1="303" y1="172" x2="328" y2="237" style="stroke:#b0b;stroke-width:1;"/>
   <line x1="305.5" y1="172" x2="309.03553390593" y2="175.53553390593" style="stroke:#b0b;stroke-width:2;"/>
   <line x1="305.5" y1="172" x2="309.03553390593" y2="168.46446609407" style="stroke:#b0b;stroke-width:2;"/>
   <line x1="333" y1="237" x2="329.46446609407" y2="240.53553390593" style="stroke:#b0b;stroke-width:2;"/>
   <line x1="333" y1="237" x2="329.46446609407" y2="233.46446609407" style="stroke:#b0b;stroke-width:2;"/>
   <line x1="318" y1="573" x2="308" y2="573" style="stroke:#333;stroke-width:1;"/>
   <line x1="168" y1="442" x2="158" y2="442" style="stroke:#333;stroke-width:1;"/>
   <line x1="308" y1="573" x2="168" y2="442" style="stroke:#333;stroke-width:1;"/>
   <line x1="310.5" y1="573" x2="314.03553390593" y2="576.53553390593" style="stroke:#333;stroke-width:2;"/>
   <line x1="310.5" y1="573" x2="314.03553390593" y2="569.46446609407" style="stroke:#333;stroke-width:2;"/>
   <line x1="163" y1="442" x2="166.53553390593" y2="445.53553390593" style="stroke:#333;stroke-width:2;"/>
   <line x1="163" y1="442" x2="166.53553390593" y2="438.46446609407" style="stroke:#333;stroke-width:2;"/>
   <rect width="146" height="20" x="58" y="5" style="fill:#007;stroke:black;"/>
   <text width="146" height="20" x="63" y="19" style="fill:#fff;" font-family="Arial" font-size="16px"> bai_grammar</text>
   <rect width="146" height="20" x="58" y="25" style="fill:#aea;stroke:black;"/>
   <text width="146" height="20" x="63" y="39" style="fill:black;" font-family="Arial" font-size="16px">baigrammarid</text>
   <rect width="146" height="20" x="58" y="45" style="fill:none;stroke:black;"/>
   <text width="146" height="20" x="63" y="59" style="fill:black;" font-family="Arial" font-size="16px">anhbaigrammar</text>
   <rect width="146" height="20" x="58" y="65" style="fill:none;stroke:black;"/>
   <text width="146" height="20" x="63" y="79" style="fill:black;" font-family="Arial" font-size="16px">content_html</text>
   <rect width="146" height="20" x="58" y="85" style="fill:none;stroke:black;"/>
   <text width="146" height="20" x="63" y="99" style="fill:black;" font-family="Arial" font-size="16px">content_mark_down</text>
   <rect width="146" height="20" x="58" y="105" style="fill:none;stroke:black;"/>
   <text width="146" height="20" x="63" y="119" style="fill:black;" font-family="Arial" font-size="16px">tenbaigrammar</text>
   <rect width="89" height="20" x="1125" y="10" style="fill:#007;stroke:black;"/>
   <text width="89" height="20" x="1130" y="24" style="fill:#fff;" font-family="Arial" font-size="16px"> bai_tap_doc</text>
   <rect width="89" height="20" x="1125" y="30" style="fill:#aea;stroke:black;"/>
   <text width="89" height="20" x="1130" y="44" style="fill:black;" font-family="Arial" font-size="16px">id</text>
   <rect width="89" height="20" x="1125" y="50" style="fill:none;stroke:black;"/>
   <text width="89" height="20" x="1130" y="64" style="fill:black;" font-family="Arial" font-size="16px">do_kho</text>
   <rect width="89" height="20" x="1125" y="70" style="fill:none;stroke:black;"/>
   <text width="89" height="20" x="1130" y="84" style="fill:black;" font-family="Arial" font-size="16px">part</text>
   <rect width="89" height="20" x="1125" y="90" style="fill:none;stroke:black;"/>
   <text width="89" height="20" x="1130" y="104" style="fill:black;" font-family="Arial" font-size="16px">script</text>
   <rect width="89" height="20" x="1125" y="110" style="fill:none;stroke:black;"/>
   <text width="89" height="20" x="1130" y="124" style="fill:black;" font-family="Arial" font-size="16px">ten_bai_doc</text>
   <rect width="99" height="20" x="646" y="433" style="fill:#007;stroke:black;"/>
   <text width="99" height="20" x="651" y="447" style="fill:#fff;" font-family="Arial" font-size="16px"> bai_tap_nghe</text>
   <rect width="99" height="20" x="646" y="453" style="fill:#aea;stroke:black;"/>
   <text width="99" height="20" x="651" y="467" style="fill:black;" font-family="Arial" font-size="16px">id</text>
   <rect width="99" height="20" x="646" y="473" style="fill:none;stroke:black;"/>
   <text width="99" height="20" x="651" y="487" style="fill:black;" font-family="Arial" font-size="16px">do_kho</text>
   <rect width="99" height="20" x="646" y="493" style="fill:none;stroke:black;"/>
   <text width="99" height="20" x="651" y="507" style="fill:black;" font-family="Arial" font-size="16px">part</text>
   <rect width="99" height="20" x="646" y="513" style="fill:none;stroke:black;"/>
   <text width="99" height="20" x="651" y="527" style="fill:black;" font-family="Arial" font-size="16px">script</text>
   <rect width="99" height="20" x="646" y="533" style="fill:none;stroke:black;"/>
   <text width="99" height="20" x="651" y="547" style="fill:black;" font-family="Arial" font-size="16px">ten_bai_nghe</text>
   <rect width="114" height="20" x="44" y="412" style="fill:#007;stroke:black;"/>
   <text width="114" height="20" x="49" y="426" style="fill:#fff;" font-family="Arial" font-size="16px"> bai_tap_tu_vung</text>
   <rect width="114" height="20" x="44" y="432" style="fill:#aea;stroke:black;"/>
   <text width="114" height="20" x="49" y="446" style="fill:black;" font-family="Arial" font-size="16px">baitaptuvungid</text>
   <rect width="114" height="20" x="44" y="452" style="fill:none;stroke:black;"/>
   <text width="114" height="20" x="49" y="466" style="fill:black;" font-family="Arial" font-size="16px">anhbaituvung</text>
   <rect width="114" height="20" x="44" y="472" style="fill:none;stroke:black;"/>
   <text width="114" height="20" x="49" y="486" style="fill:black;" font-family="Arial" font-size="16px">tenbaituvung</text>
   <rect width="97" height="20" x="601" y="16" style="fill:#007;stroke:black;"/>
   <text width="97" height="20" x="606" y="30" style="fill:#fff;" font-family="Arial" font-size="16px"> bai_thi_thu</text>
   <rect width="97" height="20" x="601" y="36" style="fill:#aea;stroke:black;"/>
   <text width="97" height="20" x="606" y="50" style="fill:black;" font-family="Arial" font-size="16px">baithithuid</text>
   <rect width="97" height="20" x="601" y="56" style="fill:none;stroke:black;"/>
   <text width="97" height="20" x="606" y="70" style="fill:black;" font-family="Arial" font-size="16px">anhbaithithu</text>
   <rect width="97" height="20" x="601" y="76" style="fill:none;stroke:black;"/>
   <text width="97" height="20" x="606" y="90" style="fill:black;" font-family="Arial" font-size="16px">tenbaithithu</text>
   <rect width="148" height="20" x="840" y="6" style="fill:#007;stroke:black;"/>
   <text width="148" height="20" x="845" y="20" style="fill:#fff;" font-family="Arial" font-size="16px"> cau_hoi_bai_tap_doc</text>
   <rect width="148" height="20" x="840" y="26" style="fill:#aea;stroke:black;"/>
   <text width="148" height="20" x="845" y="40" style="fill:black;" font-family="Arial" font-size="16px">id</text>
   <rect width="148" height="20" x="840" y="46" style="fill:none;stroke:black;"/>
   <text width="148" height="20" x="845" y="60" style="fill:black;" font-family="Arial" font-size="16px">cau_hoi</text>
   <rect width="148" height="20" x="840" y="66" style="fill:none;stroke:black;"/>
   <text width="148" height="20" x="845" y="80" style="fill:black;" font-family="Arial" font-size="16px">dap_an_dung</text>
   <rect width="148" height="20" x="840" y="86" style="fill:none;stroke:black;"/>
   <text width="148" height="20" x="845" y="100" style="fill:black;" font-family="Arial" font-size="16px">dap_an_1</text>
   <rect width="148" height="20" x="840" y="106" style="fill:none;stroke:black;"/>
   <text width="148" height="20" x="845" y="120" style="fill:black;" font-family="Arial" font-size="16px">dap_an_2</text>
   <rect width="148" height="20" x="840" y="126" style="fill:none;stroke:black;"/>
   <text width="148" height="20" x="845" y="140" style="fill:black;" font-family="Arial" font-size="16px">dap_an_3</text>
   <rect width="148" height="20" x="840" y="146" style="fill:none;stroke:black;"/>
   <text width="148" height="20" x="845" y="160" style="fill:black;" font-family="Arial" font-size="16px">dap_an_4</text>
   <rect width="148" height="20" x="840" y="166" style="fill:none;stroke:black;"/>
   <text width="148" height="20" x="845" y="180" style="fill:black;" font-family="Arial" font-size="16px">giai_thich</text>
   <rect width="148" height="20" x="840" y="186" style="fill:none;stroke:black;"/>
   <text width="148" height="20" x="845" y="200" style="fill:black;" font-family="Arial" font-size="16px">photo_name</text>
   <rect width="148" height="20" x="840" y="206" style="fill:none;stroke:black;"/>
   <text width="148" height="20" x="845" y="220" style="fill:black;" font-family="Arial" font-size="16px">so_thu_tu</text>
   <rect width="148" height="20" x="840" y="226" style="fill:none;stroke:black;"/>
   <text width="148" height="20" x="845" y="240" style="fill:black;" font-family="Arial" font-size="16px">bai_tap_doc_id</text>
   <rect width="148" height="20" x="840" y="246" style="fill:none;stroke:black;"/>
   <text width="148" height="20" x="845" y="260" style="fill:black;" font-family="Arial" font-size="16px">paragraph</text>
   <rect width="158" height="20" x="1035" y="312" style="fill:#007;stroke:black;"/>
   <text width="158" height="20" x="1040" y="326" style="fill:#fff;" font-family="Arial" font-size="16px"> cau_hoi_bai_tap_nghe</text>
   <rect width="158" height="20" x="1035" y="332" style="fill:#aea;stroke:black;"/>
   <text width="158" height="20" x="1040" y="346" style="fill:black;" font-family="Arial" font-size="16px">id</text>
   <rect width="158" height="20" x="1035" y="352" style="fill:none;stroke:black;"/>
   <text width="158" height="20" x="1040" y="366" style="fill:black;" font-family="Arial" font-size="16px">cau_hoi</text>
   <rect width="158" height="20" x="1035" y="372" style="fill:none;stroke:black;"/>
   <text width="158" height="20" x="1040" y="386" style="fill:black;" font-family="Arial" font-size="16px">dap_an_dung</text>
   <rect width="158" height="20" x="1035" y="392" style="fill:none;stroke:black;"/>
   <text width="158" height="20" x="1040" y="406" style="fill:black;" font-family="Arial" font-size="16px">dap_an_1</text>
   <rect width="158" height="20" x="1035" y="412" style="fill:none;stroke:black;"/>
   <text width="158" height="20" x="1040" y="426" style="fill:black;" font-family="Arial" font-size="16px">dap_an_2</text>
   <rect width="158" height="20" x="1035" y="432" style="fill:none;stroke:black;"/>
   <text width="158" height="20" x="1040" y="446" style="fill:black;" font-family="Arial" font-size="16px">dap_an_3</text>
   <rect width="158" height="20" x="1035" y="452" style="fill:none;stroke:black;"/>
   <text width="158" height="20" x="1040" y="466" style="fill:black;" font-family="Arial" font-size="16px">dap_an_4</text>
   <rect width="158" height="20" x="1035" y="472" style="fill:none;stroke:black;"/>
   <text width="158" height="20" x="1040" y="486" style="fill:black;" font-family="Arial" font-size="16px">giai_thich</text>
   <rect width="158" height="20" x="1035" y="492" style="fill:none;stroke:black;"/>
   <text width="158" height="20" x="1040" y="506" style="fill:black;" font-family="Arial" font-size="16px">photo_name</text>
   <rect width="158" height="20" x="1035" y="512" style="fill:none;stroke:black;"/>
   <text width="158" height="20" x="1040" y="526" style="fill:black;" font-family="Arial" font-size="16px">so_thu_tu</text>
   <rect width="158" height="20" x="1035" y="532" style="fill:none;stroke:black;"/>
   <text width="158" height="20" x="1040" y="546" style="fill:black;" font-family="Arial" font-size="16px">bai_tap_nghe_id</text>
   <rect width="158" height="20" x="1035" y="552" style="fill:none;stroke:black;"/>
   <text width="158" height="20" x="1040" y="566" style="fill:black;" font-family="Arial" font-size="16px">script</text>
   <rect width="138" height="20" x="566" y="135" style="fill:#007;stroke:black;"/>
   <text width="138" height="20" x="571" y="149" style="fill:#fff;" font-family="Arial" font-size="16px"> cau_hoi_bai_thi_thu</text>
   <rect width="138" height="20" x="566" y="155" style="fill:#aea;stroke:black;"/>
   <text width="138" height="20" x="571" y="169" style="fill:black;" font-family="Arial" font-size="16px">cauhoibaithithuid</text>
   <rect width="138" height="20" x="566" y="175" style="fill:none;stroke:black;"/>
   <text width="138" height="20" x="571" y="189" style="fill:black;" font-family="Arial" font-size="16px">audiomp3</text>
   <rect width="138" height="20" x="566" y="195" style="fill:none;stroke:black;"/>
   <text width="138" height="20" x="571" y="209" style="fill:black;" font-family="Arial" font-size="16px">correctanswer</text>
   <rect width="138" height="20" x="566" y="215" style="fill:none;stroke:black;"/>
   <text width="138" height="20" x="571" y="229" style="fill:black;" font-family="Arial" font-size="16px">dap_an_user</text>
   <rect width="138" height="20" x="566" y="235" style="fill:none;stroke:black;"/>
   <text width="138" height="20" x="571" y="249" style="fill:black;" font-family="Arial" font-size="16px">image</text>
   <rect width="138" height="20" x="566" y="255" style="fill:none;stroke:black;"/>
   <text width="138" height="20" x="571" y="269" style="fill:black;" font-family="Arial" font-size="16px">number</text>
   <rect width="138" height="20" x="566" y="275" style="fill:none;stroke:black;"/>
   <text width="138" height="20" x="571" y="289" style="fill:black;" font-family="Arial" font-size="16px">option1</text>
   <rect width="138" height="20" x="566" y="295" style="fill:none;stroke:black;"/>
   <text width="138" height="20" x="571" y="309" style="fill:black;" font-family="Arial" font-size="16px">option2</text>
   <rect width="138" height="20" x="566" y="315" style="fill:none;stroke:black;"/>
   <text width="138" height="20" x="571" y="329" style="fill:black;" font-family="Arial" font-size="16px">option3</text>
   <rect width="138" height="20" x="566" y="335" style="fill:none;stroke:black;"/>
   <text width="138" height="20" x="571" y="349" style="fill:black;" font-family="Arial" font-size="16px">option4</text>
   <rect width="138" height="20" x="566" y="355" style="fill:none;stroke:black;"/>
   <text width="138" height="20" x="571" y="369" style="fill:black;" font-family="Arial" font-size="16px">paragraph</text>
   <rect width="138" height="20" x="566" y="375" style="fill:none;stroke:black;"/>
   <text width="138" height="20" x="571" y="389" style="fill:black;" font-family="Arial" font-size="16px">question</text>
   <rect width="138" height="20" x="566" y="395" style="fill:none;stroke:black;"/>
   <text width="138" height="20" x="571" y="409" style="fill:black;" font-family="Arial" font-size="16px">baithithuid</text>
   <rect width="153" height="20" x="44" y="148" style="fill:#007;stroke:black;"/>
   <text width="153" height="20" x="49" y="162" style="fill:#fff;" font-family="Arial" font-size="16px"> comment_grammar</text>
   <rect width="153" height="20" x="44" y="168" style="fill:#aea;stroke:black;"/>
   <text width="153" height="20" x="49" y="182" style="fill:black;" font-family="Arial" font-size="16px">cmtgrammarid</text>
   <rect width="153" height="20" x="44" y="188" style="fill:none;stroke:black;"/>
   <text width="153" height="20" x="49" y="202" style="fill:black;" font-family="Arial" font-size="16px">cmtgrammarcontent</text>
   <rect width="153" height="20" x="44" y="208" style="fill:none;stroke:black;"/>
   <text width="153" height="20" x="49" y="222" style="fill:black;" font-family="Arial" font-size="16px">time</text>
   <rect width="153" height="20" x="44" y="228" style="fill:none;stroke:black;"/>
   <text width="153" height="20" x="49" y="242" style="fill:black;" font-family="Arial" font-size="16px">baigrammarid</text>
   <rect width="153" height="20" x="44" y="248" style="fill:none;stroke:black;"/>
   <text width="153" height="20" x="49" y="262" style="fill:black;" font-family="Arial" font-size="16px">id</text>
   <rect width="166" height="20" x="44" y="265" style="fill:#007;stroke:black;"/>
   <text width="166" height="20" x="49" y="279" style="fill:#fff;" font-family="Arial" font-size="16px"> comment_tu_vung</text>
   <rect width="166" height="20" x="44" y="285" style="fill:#aea;stroke:black;"/>
   <text width="166" height="20" x="49" y="299" style="fill:black;" font-family="Arial" font-size="16px">cmtvocabularyid</text>
   <rect width="166" height="20" x="44" y="305" style="fill:none;stroke:black;"/>
   <text width="166" height="20" x="49" y="319" style="fill:black;" font-family="Arial" font-size="16px">cmtvocabularycontent</text>
   <rect width="166" height="20" x="44" y="325" style="fill:none;stroke:black;"/>
   <text width="166" height="20" x="49" y="339" style="fill:black;" font-family="Arial" font-size="16px">time</text>
   <rect width="166" height="20" x="44" y="345" style="fill:none;stroke:black;"/>
   <text width="166" height="20" x="49" y="359" style="fill:black;" font-family="Arial" font-size="16px">baitaptuvungid</text>
   <rect width="166" height="20" x="44" y="365" style="fill:none;stroke:black;"/>
   <text width="166" height="20" x="49" y="379" style="fill:black;" font-family="Arial" font-size="16px">id</text>
   <rect width="98" height="20" x="313" y="2" style="fill:#007;stroke:black;"/>
   <text width="98" height="20" x="318" y="16" style="fill:#fff;" font-family="Arial" font-size="16px"> ket_qua</text>
   <rect width="98" height="20" x="313" y="22" style="fill:#aea;stroke:black;"/>
   <text width="98" height="20" x="318" y="36" style="fill:black;" font-family="Arial" font-size="16px">ketquaid</text>
   <rect width="98" height="20" x="313" y="42" style="fill:none;stroke:black;"/>
   <text width="98" height="20" x="318" y="56" style="fill:black;" font-family="Arial" font-size="16px">correctlisten</text>
   <rect width="98" height="20" x="313" y="62" style="fill:none;stroke:black;"/>
   <text width="98" height="20" x="318" y="76" style="fill:black;" font-family="Arial" font-size="16px">correctread</text>
   <rect width="98" height="20" x="313" y="82" style="fill:none;stroke:black;"/>
   <text width="98" height="20" x="318" y="96" style="fill:black;" font-family="Arial" font-size="16px">time</text>
   <rect width="98" height="20" x="313" y="102" style="fill:none;stroke:black;"/>
   <text width="98" height="20" x="318" y="116" style="fill:black;" font-family="Arial" font-size="16px">socaudung</text>
   <rect width="98" height="20" x="313" y="122" style="fill:none;stroke:black;"/>
   <text width="98" height="20" x="318" y="136" style="fill:black;" font-family="Arial" font-size="16px">socausai</text>
   <rect width="98" height="20" x="313" y="142" style="fill:none;stroke:black;"/>
   <text width="98" height="20" x="318" y="156" style="fill:black;" font-family="Arial" font-size="16px">baithithuid</text>
   <rect width="98" height="20" x="313" y="162" style="fill:none;stroke:black;"/>
   <text width="98" height="20" x="318" y="176" style="fill:black;" font-family="Arial" font-size="16px">nguoidungid</text>
   <rect width="102" height="20" x="338" y="207" style="fill:#007;stroke:black;"/>
   <text width="102" height="20" x="343" y="221" style="fill:#fff;" font-family="Arial" font-size="16px"> nguoi_dung</text>
   <rect width="102" height="20" x="338" y="227" style="fill:#aea;stroke:black;"/>
   <text width="102" height="20" x="343" y="241" style="fill:black;" font-family="Arial" font-size="16px">id</text>
   <rect width="102" height="20" x="338" y="247" style="fill:none;stroke:black;"/>
   <text width="102" height="20" x="343" y="261" style="fill:black;" font-family="Arial" font-size="16px">dia_chi</text>
   <rect width="102" height="20" x="338" y="267" style="fill:none;stroke:black;"/>
   <text width="102" height="20" x="343" y="281" style="fill:black;" font-family="Arial" font-size="16px">email</text>
   <rect width="102" height="20" x="338" y="287" style="fill:none;stroke:black;"/>
   <text width="102" height="20" x="343" y="301" style="fill:black;" font-family="Arial" font-size="16px">ho_ten</text>
   <rect width="102" height="20" x="338" y="307" style="fill:none;stroke:black;"/>
   <text width="102" height="20" x="343" y="321" style="fill:black;" font-family="Arial" font-size="16px">password</text>
   <rect width="102" height="20" x="338" y="327" style="fill:none;stroke:black;"/>
   <text width="102" height="20" x="343" y="341" style="fill:black;" font-family="Arial" font-size="16px">so_dien_thoai</text>
   <rect width="102" height="20" x="338" y="347" style="fill:none;stroke:black;"/>
   <text width="102" height="20" x="343" y="361" style="fill:black;" font-family="Arial" font-size="16px">vai_tro</text>
   <rect width="157" height="20" x="318" y="383" style="fill:#007;stroke:black;"/>
   <text width="157" height="20" x="323" y="397" style="fill:#fff;" font-family="Arial" font-size="16px"> noi_dung_bai_tu_vung</text>
   <rect width="157" height="20" x="318" y="403" style="fill:#aea;stroke:black;"/>
   <text width="157" height="20" x="323" y="417" style="fill:black;" font-family="Arial" font-size="16px">noidungbaituvungid</text>
   <rect width="157" height="20" x="318" y="423" style="fill:none;stroke:black;"/>
   <text width="157" height="20" x="323" y="437" style="fill:black;" font-family="Arial" font-size="16px">audiomp3</text>
   <rect width="157" height="20" x="318" y="443" style="fill:none;stroke:black;"/>
   <text width="157" height="20" x="323" y="457" style="fill:black;" font-family="Arial" font-size="16px">content</text>
   <rect width="157" height="20" x="318" y="463" style="fill:none;stroke:black;"/>
   <text width="157" height="20" x="323" y="477" style="fill:black;" font-family="Arial" font-size="16px">image</text>
   <rect width="157" height="20" x="318" y="483" style="fill:none;stroke:black;"/>
   <text width="157" height="20" x="323" y="497" style="fill:black;" font-family="Arial" font-size="16px">meaning</text>
   <rect width="157" height="20" x="318" y="503" style="fill:none;stroke:black;"/>
   <text width="157" height="20" x="323" y="517" style="fill:black;" font-family="Arial" font-size="16px">number</text>
   <rect width="157" height="20" x="318" y="523" style="fill:none;stroke:black;"/>
   <text width="157" height="20" x="323" y="537" style="fill:black;" font-family="Arial" font-size="16px">sentence</text>
   <rect width="157" height="20" x="318" y="543" style="fill:none;stroke:black;"/>
   <text width="157" height="20" x="323" y="557" style="fill:black;" font-family="Arial" font-size="16px">transcribe</text>
   <rect width="157" height="20" x="318" y="563" style="fill:none;stroke:black;"/>
   <text width="157" height="20" x="323" y="577" style="fill:black;" font-family="Arial" font-size="16px">baitaptuvungid</text>
   <rect width="106" height="20" x="1134" y="204" style="fill:#007;stroke:black;"/>
   <text width="106" height="20" x="1139" y="218" style="fill:#fff;" font-family="Arial" font-size="16px"> slidebanner</text>
   <rect width="106" height="20" x="1134" y="224" style="fill:#aea;stroke:black;"/>
   <text width="106" height="20" x="1139" y="238" style="fill:black;" font-family="Arial" font-size="16px">slidebannerid</text>
   <rect width="106" height="20" x="1134" y="244" style="fill:none;stroke:black;"/>
   <text width="106" height="20" x="1139" y="258" style="fill:black;" font-family="Arial" font-size="16px">slidename</text>
   <rect width="106" height="20" x="1134" y="264" style="fill:none;stroke:black;"/>
   <text width="106" height="20" x="1139" y="278" style="fill:black;" font-family="Arial" font-size="16px">slidecontent</text>
   <rect width="106" height="20" x="1134" y="284" style="fill:none;stroke:black;"/>
   <text width="106" height="20" x="1139" y="298" style="fill:black;" font-family="Arial" font-size="16px">slideimage</text>
</svg>
